<?xml version="1.0" encoding="UTF-8"?>
<svg version="1.1" xmlns="http://www.w3.org/2000/svg" width="371" height="201">
<path d="M0 0 C44.88 0 89.76 0 136 0 C136 43.23 136 86.46 136 131 C91.12 131 46.24 131 0 131 C0 87.77 0 44.54 0 0 Z " fill="#030303" transform="translate(235,70)"/>
<path d="M0 0 C11.88 0 23.76 0 36 0 C36.3167266 7.43486366 36.61651274 14.84475978 36.77625275 22.28052521 C36.85483793 25.74363804 36.95932475 29.20106275 37.1315918 32.66088867 C38.30000221 56.73985973 38.30000221 56.73985973 32.66455078 64.24951172 C29.23756474 68.00721291 25.4540087 71.4944731 21 74 C20.34 74 19.68 74 19 74 C19 66.08 19 58.16 19 50 C18.01 50 17.02 50 16 50 C16 57.92 16 65.84 16 74 C13.69 72.02 11.38 70.04 9 68 C8.13492325 67.31688248 7.2698465 66.63376495 6.3785553 65.9299469 C2.85304464 62.89986583 0.38387743 60.51713366 -0.77713013 55.92868042 C-1.03912314 52.3228525 -1.01379576 48.82755776 -0.87890625 45.21484375 C-0.86617172 43.91801163 -0.85343719 42.6211795 -0.84031677 41.28504944 C-0.80623242 37.86568043 -0.71809735 34.44984802 -0.61798096 31.03186035 C-0.52528868 27.53280332 -0.48418164 24.03314769 -0.43945312 20.53320312 C-0.34820711 13.68569663 -0.17209929 6.84785181 0 0 Z " fill="#008C44" transform="translate(305,70)"/>
<path d="M0 0 C1.36777173 12.66455304 1.36777173 12.66455304 -1.72265625 17.94140625 C-4.0296678 20.47001753 -6.42860333 22.7420915 -9 25 C-10.50877537 26.49117299 -12.00948053 27.99057902 -13.5 29.5 C-14.1496875 30.1290625 -14.799375 30.758125 -15.46875 31.40625 C-17.39356266 33.40962645 -18.00907541 34.3918795 -17.96728516 37.19213867 C-17.90847168 38.0916626 -17.8496582 38.99118652 -17.7890625 39.91796875 C-17.16804137 57.45334711 -17.16804137 57.45334711 -22.3671875 63.92578125 C-25.90470136 67.64783498 -29.7376462 71.12079412 -34 74 C-34.33 74 -34.66 74 -35 74 C-37.95280677 36.76256805 -37.95280677 36.76256805 -31.4609375 27.83984375 C-28.06307269 24.22171553 -24.26980507 21.34210179 -20.15258789 18.58984375 C-16.52484518 15.91049017 -13.86000213 12.45420039 -11 9 C-9.41659828 7.31359333 -7.81606933 5.64283 -6.1875 4 C-5.43855469 3.236875 -4.68960937 2.47375 -3.91796875 1.6875 C-2 0 -2 0 0 0 Z " fill="#008D44" transform="translate(302,70)"/>
<path d="M0 0 C10.56 0 21.12 0 32 0 C25.85515728 7.16898317 25.85515728 7.16898317 21.6875 10.1875 C17.078019 14.56870194 17.20003137 19.47963337 17 25.5 C16.94101038 28.66909951 16.93481051 31.83106669 17 35 C16.01 35 15.02 35 14 35 C14.03778564 34.43192627 14.07557129 33.86385254 14.11450195 33.27856445 C14.99404011 20.76217748 14.99404011 20.76217748 10.0390625 9.74609375 C6.93345503 6.52669303 3.5153709 3.75753712 0 1 C0 0.67 0 0.34 0 0 Z " fill="#000402" transform="translate(307,70)"/>
<path d="M0 0 C1.32 0 2.64 0 4 0 C4.02689216 1.47906892 4.04634621 2.95827483 4.0625 4.4375 C4.07410156 5.26121094 4.08570313 6.08492187 4.09765625 6.93359375 C4 9 4 9 3 10 C0.47458998 10.09504251 -2.02337126 10.12557158 -4.54907227 10.11352539 C-5.73435013 10.11374443 -5.73435013 10.11374443 -6.943573 10.1139679 C-9.56787822 10.11326857 -12.19211336 10.10547527 -14.81640625 10.09765625 C-16.63101665 10.09579214 -18.44562756 10.0943682 -20.26023865 10.09336853 C-25.0459023 10.08954279 -29.8315358 10.07971204 -34.6171875 10.06866455 C-39.49674064 10.05845163 -44.37629864 10.05387117 -49.25585938 10.04882812 C-58.83725286 10.03808982 -68.41862393 10.02101273 -78 10 C-78 11.32 -78 12.64 -78 14 C-80.64 14 -83.28 14 -86 14 C-86 13.34 -86 12.68 -86 12 C-84.35 12 -82.7 12 -81 12 C-81 11.34 -81 10.68 -81 10 C-82.65 10 -84.3 10 -86 10 C-86.042721 8.33388095 -86.04063832 6.66617115 -86 5 C-85 4 -85 4 -81.4375 3.9375 C-80.303125 3.958125 -79.16875 3.97875 -78 4 C-78 5.32 -78 6.64 -78 8 C-69.75 8 -61.5 8 -53 8 C-53 6.68 -53 5.36 -53 4 C-52.01 4 -51.02 4 -50 4 C-50 5.32 -50 6.64 -50 8 C-43.4 8 -36.8 8 -30 8 C-30 6.68 -30 5.36 -30 4 C-28.68 4 -27.36 4 -26 4 C-26 5.32 -26 6.64 -26 8 C-20.06 8 -14.12 8 -8 8 C-8 7.34 -8 6.68 -8 6 C-9.65 6 -11.3 6 -13 6 C-13 5.34 -13 4.68 -13 4 C-10.36 4 -7.72 4 -5 4 C-5 5.32 -5 6.64 -5 8 C-3.35 8 -1.7 8 0 8 C0 5.36 0 2.72 0 0 Z " fill="#F6F6F6" transform="translate(347,162)"/>
<path d="M0 0 C5.28 0 10.56 0 16 0 C16 4.95 16 9.9 16 15 C10.72 15 5.44 15 0 15 C0 10.05 0 5.1 0 0 Z " fill="#008942" transform="translate(286,105)"/>
<path d="M0 0 C3.5 0.25 3.5 0.25 5.5 2.25 C5.75 5.25 5.75 5.25 5.5 8.25 C3.5 10.25 3.5 10.25 0 10.5625 C-1.7325 10.4078125 -1.7325 10.4078125 -3.5 10.25 C-5.64915785 7.02626323 -5.88286803 5.98296326 -5.5 2.25 C-3.5 0.25 -3.5 0.25 0 0 Z " fill="#EBEBEB" transform="translate(325.5,179.75)"/>
<path d="M0 0 C1.27875 -0.061875 2.5575 -0.12375 3.875 -0.1875 C4.95394531 -0.23970703 4.95394531 -0.23970703 6.0546875 -0.29296875 C6.69664062 -0.19628906 7.33859375 -0.09960938 8 0 C10 3 10 3 9.75 6.125 C9.5025 7.07375 9.255 8.0225 9 9 C6.23749964 10.38125018 4.05268901 10.19079306 1 10 C-1 8 -1 8 -1.1875 5 C-1 2 -1 2 0 0 Z " fill="#E5E5E5" transform="translate(334,180)"/>
<path d="M0 0 C26.4 0 52.8 0 80 0 C80 0.33 80 0.66 80 1 C70.76 1 61.52 1 52 1 C52 1.99 52 2.98 52 4 C50.68 4 49.36 4 48 4 C48 3.01 48 2.02 48 1 C32.16 1 16.32 1 0 1 C0 0.67 0 0.34 0 0 Z " fill="#4F4F4F" transform="translate(269,172)"/>
<path d="M0 0 C1.32 0 2.64 0 4 0 C4 0.99 4 1.98 4 3 C4.99 3 5.98 3 7 3 C7 2.01 7 1.02 7 0 C8.32 0 9.64 0 11 0 C11 3.3 11 6.6 11 10 C9.68 10 8.36 10 7 10 C7 8.68 7 7.36 7 6 C6.01 6 5.02 6 4 6 C4 7.32 4 8.64 4 10 C2.68 10 1.36 10 0 10 C0 6.7 0 3.4 0 0 Z " fill="#CFCFCF" transform="translate(274,180)"/>
<path d="M0 0 C2.64 0 5.28 0 8 0 C8.77842938 3.40562852 9.09978121 6.50765756 9 10 C6.03 10 3.06 10 0 10 C0 6.7 0 3.4 0 0 Z " fill="#F9F9F9" transform="translate(300,180)"/>
<path d="M0 0 C1.2065625 0.0309375 1.2065625 0.0309375 2.4375 0.0625 C5.4375 6.6875 5.4375 6.6875 5.4375 10.0625 C4.1175 10.0625 2.7975 10.0625 1.4375 10.0625 C1.4375 9.4025 1.4375 8.7425 1.4375 8.0625 C0.2928125 8.5575 0.2928125 8.5575 -0.875 9.0625 C-3.5625 10.0625 -3.5625 10.0625 -6.5625 10.0625 C-6.08699439 8.58215236 -5.60698784 7.10324979 -5.125 5.625 C-4.85816406 4.80128906 -4.59132812 3.97757813 -4.31640625 3.12890625 C-3.20336342 0.07813082 -3.20336342 0.07813082 0 0 Z " fill="#E7E7E7" transform="translate(258.5625,179.9375)"/>
<path d="M0 0 C1.2065625 0.0309375 1.2065625 0.0309375 2.4375 0.0625 C5.4375 6.6875 5.4375 6.6875 5.4375 10.0625 C2.77083333 9.39583333 0.10416667 8.72916667 -2.5625 8.0625 C-2.5625 8.7225 -2.5625 9.3825 -2.5625 10.0625 C-3.8825 10.0625 -5.2025 10.0625 -6.5625 10.0625 C-6.08699439 8.58215236 -5.60698784 7.10324979 -5.125 5.625 C-4.85816406 4.80128906 -4.59132813 3.97757813 -4.31640625 3.12890625 C-3.20336342 0.07813082 -3.20336342 0.07813082 0 0 Z " fill="#DCDCDC" transform="translate(292.5625,179.9375)"/>
<path d="M0 0 C2.97 0 5.94 0 9 0 C9 3.3 9 6.6 9 10 C8.01 10 7.02 10 6 10 C6 8.68 6 7.36 6 6 C5.01 6 4.02 6 3 6 C3 7.32 3 8.64 3 10 C2.01 10 1.02 10 0 10 C0 6.7 0 3.4 0 0 Z " fill="#F8F8F8" transform="translate(346,180)"/>
<path d="M0 0 C2.64 0 5.28 0 8 0 C8 0.99 8 1.98 8 3 C7.34 3 6.68 3 6 3 C6 4.32 6 5.64 6 7 C12.27 7 18.54 7 25 7 C25 7.33 25 7.66 25 8 C18.4 8 11.8 8 5 8 C5 6.68 5 5.36 5 4 C3.35 3.67 1.7 3.34 0 3 C0 2.01 0 1.02 0 0 Z " fill="#797979" transform="translate(292,162)"/>
<path d="M0 0 C2.64 0 5.28 0 8 0 C8 0.66 8 1.32 8 2 C7.34 2 6.68 2 6 2 C6 4.64 6 7.28 6 10 C4.68 10 3.36 10 2 10 C2 7.36 2 4.72 2 2 C1.34 2 0.68 2 0 2 C0 1.34 0 0.68 0 0 Z " fill="#E8E8E8" transform="translate(311,180)"/>
<path d="M0 0 C0.99 0 1.98 0 3 0 C3 2.31 3 4.62 3 7 C4.32 7 5.64 7 7 7 C7 7.99 7 8.98 7 10 C4.69 10 2.38 10 0 10 C0 6.7 0 3.4 0 0 Z " fill="#ECECEC" transform="translate(266,180)"/>
<path d="M0 0 C1.32 0 2.64 0 4 0 C4 3.3 4 6.6 4 10 C2.68 10 1.36 10 0 10 C0 6.7 0 3.4 0 0 Z " fill="#DCDCDC" transform="translate(352,162)"/>
<path d="M0 0 C0.99 0 1.98 0 3 0 C3 3.3 3 6.6 3 10 C0.69 10 -1.62 10 -4 10 C-4 9.34 -4 8.68 -4 8 C-2.68 8 -1.36 8 0 8 C0 5.36 0 2.72 0 0 Z " fill="#FBFBFB" transform="translate(256,166)"/>
<path d="M0 0 C0.25 2.3125 0.25 2.3125 0 5 C-1.8125 6.8125 -1.8125 6.8125 -4 8 C-4.99 8 -5.98 8 -7 8 C-6.40138258 5.64828869 -5.73075648 3.3140622 -5 1 C-3 0 -3 0 0 0 Z " fill="#D0D0D0" transform="translate(259,182)"/>
<path d="M0 0 C0.99 0.33 1.98 0.66 3 1 C3.1875 3.375 3.1875 3.375 3 6 C0 8 0 8 -3 8 C-3 6.02 -3 4.04 -3 2 C-2.01 2 -1.02 2 0 2 C0 1.34 0 0.68 0 0 Z " fill="#ADADAD" transform="translate(306,180)"/>
<path d="M0 0 C1.65 0 3.3 0 5 0 C4.01 1.485 4.01 1.485 3 3 C2.83300768 6.12521833 2.83300768 6.12521833 3 9 C1.68 8.67 0.36 8.34 -1 8 C-1.125 2.25 -1.125 2.25 0 0 Z " fill="#F4F4F4" transform="translate(334,180)"/>
<path d="M0 0 C0.99 0 1.98 0 3 0 C3 3.3 3 6.6 3 10 C2.01 10 1.02 10 0 10 C-0.74926071 6.33694766 -1.2380014 3.57644848 0 0 Z " fill="#FCFCFC" transform="translate(282,180)"/>
<path d="M0 0 C2.475 0.99 2.475 0.99 5 2 C5 2.99 5 3.98 5 5 C3.02 5.33 1.04 5.66 -1 6 C-1.042721 4.33388095 -1.04063832 2.66617115 -1 1 C-0.67 0.67 -0.34 0.34 0 0 Z " fill="#CECECE" transform="translate(262,166)"/>
<path d="M0 0 C0 1.32 0 2.64 0 4 C-3.75 5.125 -3.75 5.125 -6 4 C-6 2.68 -6 1.36 -6 0 C-3.50907189 -1.24546405 -2.58919267 -0.7767578 0 0 Z " fill="#E91717" transform="translate(6,1)"/>
<path d="M0 0 C2 2 2 2 2 6 C3.65 6 5.3 6 7 6 C7 6.66 7 7.32 7 8 C5.35 8 3.7 8 2 8 C1.67 8.66 1.34 9.32 1 10 C0 9 0 9 -0.09765625 6.93359375 C-0.08605469 6.10988281 -0.07445312 5.28617188 -0.0625 4.4375 C-0.05347656 3.61121094 -0.04445313 2.78492188 -0.03515625 1.93359375 C-0.02355469 1.29550781 -0.01195312 0.65742188 0 0 Z " fill="#343434" transform="translate(259,166)"/>
<path d="M0 0 C0.66 1.32 1.32 2.64 2 4 C1.01 4.495 1.01 4.495 0 5 C0 5.66 0 6.32 0 7 C-1.32 7 -2.64 7 -4 7 C-3.39816251 4.97954558 -2.72693904 2.97888961 -2 1 C-1.34 0.67 -0.68 0.34 0 0 Z " fill="#E5E5E5" transform="translate(290,183)"/>
<path d="M0 0 C0 1.98 0 3.96 0 6 C-1.98 5.34 -3.96 4.68 -6 4 C-6 3.01 -6 2.02 -6 1 C-3 0 -3 0 0 0 Z " fill="#B0B0B0" transform="translate(355,180)"/>
<path d="M0 0 C1.32 0.33 2.64 0.66 4 1 C3.67 2.65 3.34 4.3 3 6 C2.01 6 1.02 6 0 6 C0 4.02 0 2.04 0 0 Z " fill="#2D2D2D" transform="translate(324,182)"/>
<path d="M0 0 C0.99 0 1.98 0 3 0 C3 1.65 3 3.3 3 5 C1.68 5 0.36 5 -1 5 C-0.67 3.35 -0.34 1.7 0 0 Z " fill="#212121" transform="translate(337,182)"/>
<path d="M0 0 C0 1.32 0 2.64 0 4 C-2.97 4 -5.94 4 -9 4 C-3 0 -3 0 0 0 Z " fill="#E5E5E5" transform="translate(309,186)"/>
</svg>
